<?xml version="1.0" encoding="UTF-8"?>
<svg version="1.1" xmlns="http://www.w3.org/2000/svg" width="478" height="406">
<path d="M0 0 C3.87421701 -0.20416594 7.74704592 -0.32791537 11.625 -0.4375 C13.26662109 -0.52547852 13.26662109 -0.52547852 14.94140625 -0.61523438 C22.8813877 -0.78365822 22.8813877 -0.78365822 25.9519043 1.36743164 C27.51316237 3.16140226 28.7595695 4.97316115 30 7 C31.14662109 8.54107422 31.14662109 8.54107422 32.31640625 10.11328125 C33.05761719 11.16902344 33.79882812 12.22476563 34.5625 13.3125 C35.4304142 14.54207301 36.29893472 15.7712182 37.16796875 17 C37.62478027 17.64710938 38.0815918 18.29421875 38.55224609 18.9609375 C41.13380991 22.59689382 43.75766904 26.20225433 46.375 29.8125 C50.66755684 35.74148772 54.91645003 41.69862084 59.125 47.6875 C63.07696542 53.30641439 67.06989648 58.89247859 71.125 64.4375 C71.58664551 65.07067139 72.04829102 65.70384277 72.52392578 66.35620117 C74.25186595 68.70860786 75.93275926 70.93275926 78 73 C84.62777737 64.26872591 91.13523191 55.47347922 97.42895508 46.49804688 C102.65078364 39.05446927 107.98001425 31.69037652 113.31494141 24.32763672 C115.08094577 21.88818647 116.84364663 19.4463785 118.60546875 17.00390625 C119.19465088 16.18720459 119.78383301 15.37050293 120.39086914 14.52905273 C121.51915051 12.96489863 122.64725252 11.40061512 123.77514648 9.83618164 C124.28505127 9.12969482 124.79495605 8.42320801 125.3203125 7.6953125 C125.76648926 7.07672363 126.21266602 6.45813477 126.67236328 5.82080078 C127.1104834 5.21993652 127.54860352 4.61907227 128 4 C128.40354706 3.31050262 128.80709412 2.62100525 129.22286987 1.91061401 C131 0 131 0 133.63549805 -0.45410156 C135.18297729 -0.42268066 135.18297729 -0.42268066 136.76171875 -0.390625 C137.87998047 -0.37773438 138.99824219 -0.36484375 140.15039062 -0.3515625 C141.31763672 -0.31804687 142.48488281 -0.28453125 143.6875 -0.25 C144.86634766 -0.23195313 146.04519531 -0.21390625 147.25976562 -0.1953125 C150.17398926 -0.14811859 153.08659031 -0.08229077 156 0 C156.17333328 13.58325375 156.33963823 27.16658685 156.5 40.75 C156.51187725 41.75571423 156.5237545 42.76142845 156.53599167 43.79761887 C156.94780365 78.86719011 157.14056722 113.92800078 157 149 C153.35547308 149.99255961 150.08926867 150.12921445 146.30078125 150.1328125 C144.36428711 150.13474609 144.36428711 150.13474609 142.38867188 150.13671875 C141.7202124 150.13462402 141.05175293 150.1325293 140.36303711 150.13037109 C138.30900785 150.12499085 136.25519461 150.13034208 134.20117188 150.13671875 C132.91404297 150.13542969 131.62691406 150.13414062 130.30078125 150.1328125 C129.11653564 150.13168457 127.93229004 150.13055664 126.7121582 150.12939453 C124 150 124 150 123 149 C122.87499848 146.4755093 122.81396462 143.97700383 122.79467773 141.45092773 C122.78477814 140.66074249 122.77487854 139.87055725 122.76467896 139.056427 C122.73297152 136.43218022 122.70827021 133.80791531 122.68359375 131.18359375 C122.66303219 129.36897803 122.64203594 127.5543672 122.62062073 125.73976135 C122.56531759 120.9541518 122.5159448 116.16849844 122.46777344 111.3828125 C122.41761843 106.50321536 122.36190112 101.62368215 122.30664062 96.74414062 C122.19895832 87.16281498 122.09753587 77.58143392 122 68 C119.79298047 70.98602764 117.58775325 73.97337461 115.3828125 76.9609375 C114.76639893 77.79488037 114.14998535 78.62882324 113.51489258 79.48803711 C108.0677881 86.87157109 102.76263197 94.34868171 97.49853516 101.86328125 C94.86164442 105.62314891 92.21138361 109.37357704 89.5625 113.125 C89.0782959 113.81158691 88.5940918 114.49817383 88.09521484 115.20556641 C85.07859464 119.48129766 82.0451454 123.74453366 79 128 C74.85182101 124.05808406 71.38562227 119.81023443 67.9375 115.25 C67.37023193 114.50411621 66.80296387 113.75823242 66.21850586 112.98974609 C61.89119354 107.2636762 57.72239969 101.43710397 53.61572266 95.55151367 C49.01385447 88.96860293 44.25025352 82.5101425 39.45532227 76.06689453 C38.88869873 75.3036084 38.3220752 74.54032227 37.73828125 73.75390625 C37.23337158 73.07658447 36.72846191 72.3992627 36.20825195 71.70141602 C35 70 35 70 34 68 C33.67 94.73 33.34 121.46 33 149 C18.1733944 150.14050812 18.1733944 150.14050812 11.80949402 144.73667908 C2.03719047 135.06417737 -1.88931798 127.07715881 -1.98828125 113.49609375 C-1.97721333 108.23402809 -1.73496891 102.99512865 -1.43157959 97.74291992 C-1.23128907 93.86522966 -1.1549103 89.98503418 -1.06445312 86.10351562 C-0.49100848 64.47302545 -0.49100848 64.47302545 1 60 C1.23175665 56.46249768 1.18517739 52.91930203 1.1875 49.375 C1.19974609 48.41464844 1.21199219 47.45429688 1.22460938 46.46484375 C1.23552935 41.09949492 0.7547416 36.35397553 -0.5480957 31.15771484 C-1.31687331 27.48701983 -1.24986387 23.86026762 -1.1875 20.125 C-1.18685547 19.39925781 -1.18621094 18.67351562 -1.18554688 17.92578125 C-1.13819338 11.91714945 -0.60787177 5.97519065 0 0 Z " fill="#FFFFFF" transform="translate(229,128)"/>
<path d="M0 0 C0.74895035 0.00045319 1.4979007 0.00090637 2.26954651 0.00137329 C3.4479435 -0.00366463 3.4479435 -0.00366463 4.65014648 -0.00880432 C7.26727352 -0.01835803 9.88433667 -0.02026082 12.5014801 -0.02133179 C14.32499722 -0.02454556 16.14851407 -0.02790973 17.97203064 -0.03141785 C21.81062922 -0.03742308 25.64920527 -0.03925675 29.48780823 -0.03866577 C34.36833007 -0.03856504 39.24870351 -0.05211812 44.12919044 -0.06943798 C47.9059971 -0.08066 51.68276931 -0.08258174 55.45959091 -0.08205605 C57.25582253 -0.08322467 59.05205538 -0.0875825 60.84827042 -0.09538841 C80.02054579 -0.17078559 99.00213539 0.14386464 113.7749176 14.14663696 C123.72159176 24.0319119 127.32810157 36.72726508 127.3999176 50.39663696 C127.28470128 58.71568216 126.09699652 65.48851127 122.7749176 73.14663696 C121.45606895 76.98778367 121.663121 80.88465184 121.7124176 84.89663696 C121.71918518 85.94271118 121.71918518 85.94271118 121.72608948 87.00991821 C121.7378174 88.72219499 121.75575108 90.4344273 121.7749176 92.14663696 C121.4449176 92.14663696 121.1149176 92.14663696 120.7749176 92.14663696 C119.7849176 86.70163696 119.7849176 86.70163696 118.7749176 81.14663696 C117.8055426 82.34288696 116.8361676 83.53913696 115.8374176 84.77163696 C110.57982991 90.78486985 104.07409098 94.94212182 96.7749176 98.14663696 C96.1149176 98.14663696 95.4549176 98.14663696 94.7749176 98.14663696 C97.77093552 102.94318147 101.19060318 106.93567859 105.0874176 111.02163696 C106.26006141 112.26831009 107.43194421 113.51569949 108.6030426 114.76382446 C109.15798401 115.35389282 109.71292542 115.94396118 110.28468323 116.5519104 C114.19090164 120.73202486 117.88397855 125.09357151 121.5796051 129.45913696 C126.67355949 135.46114758 131.74028215 141.35142553 137.4467926 146.79116821 C138.7749176 148.14663696 138.7749176 148.14663696 138.7749176 149.14663696 C134.31230351 149.5093458 129.85319593 149.77447328 125.3818512 149.99136353 C123.57028481 150.09926353 121.76044628 150.23897334 119.95314026 150.4034729 C101.49012298 152.07774751 101.49012298 152.07774751 95.8842926 147.52944946 C93.19895808 144.84371222 90.97689393 141.88716069 88.8608551 138.73989868 C87.49393903 136.73439188 85.92403631 134.98660689 84.2749176 133.20913696 C83.10514514 131.85765227 81.93894866 130.50306985 80.7749176 129.14663696 C80.35274963 128.65614868 79.93058167 128.1656604 79.49562073 127.66030884 C78.52163197 126.52866483 77.54887002 125.39596409 76.5771637 124.26235962 C75.53908508 123.05643816 74.49507846 121.85559531 73.44532776 120.65982056 C70.83844316 117.66893262 68.40561385 114.68196149 66.1889801 111.38882446 C61.96279521 105.0921458 61.96279521 105.0921458 55.54005432 101.49429321 C50.14769871 100.66255639 45.32441434 100.93800927 39.7749176 101.14663696 C39.7749176 91.57663696 39.7749176 82.00663696 39.7749176 72.14663696 C42.4252301 72.10925415 45.0755426 72.07187134 47.8061676 72.03335571 C50.39446409 71.98704448 52.98262143 71.93584589 55.57081604 71.88418579 C57.35914031 71.85108661 59.14756528 71.8230087 60.93605042 71.80020142 C63.5181896 71.76637741 66.09941836 71.71405073 68.6811676 71.65835571 C69.47108093 71.65196579 70.26099426 71.64557587 71.07484436 71.63899231 C77.66738047 71.4673317 82.8731234 69.88771349 88.5874176 66.45913696 C92.59715376 62.22027302 93.92076573 57.41528626 94.1499176 51.64663696 C93.91560611 46.20123796 92.88676442 41.44320797 89.12257385 37.34976196 C83.53725973 32.39028642 79.07694651 31.98960824 71.71363831 31.9413147 C70.78661102 31.9314151 69.85958374 31.9215155 68.90446472 31.91131592 C65.83656885 31.8796976 62.76865749 31.85494211 59.70069885 31.83023071 C57.57505895 31.80966148 55.44942313 31.78866501 53.3237915 31.76725769 C47.72607231 31.7120339 42.12831619 31.66262593 36.53053284 31.6144104 C30.81964324 31.56419766 25.10880734 31.5085104 19.39796448 31.45327759 C8.19032634 31.34569222 -3.01735736 31.24475385 -14.2250824 31.14663696 C-14.2250824 23.55663696 -14.2250824 15.96663696 -14.2250824 8.14663696 C-11.5850824 8.14663696 -8.9450824 8.14663696 -6.2250824 8.14663696 C-6.2457074 7.01226196 -6.2663324 5.87788696 -6.2875824 4.70913696 C-6.19203253 -0.73720536 -4.98037852 0.03132593 0 0 Z " fill="#FFFFFF" transform="translate(98.22508239746094,127.85336303710938)"/>
<path d="M0 0 C33.35242102 -1.06023101 33.35242102 -1.06023101 46 10 C53.99902239 18.32185289 57.11064648 28.85352597 57.13803101 40.20368958 C57.14348434 41.42739761 57.14893768 42.65110565 57.15455627 43.91189575 C57.15567583 45.25482172 57.15672639 46.59774775 57.15771484 47.94067383 C57.16238788 49.36536311 57.16753225 50.79005091 57.17311096 52.21473694 C57.18435893 55.27578909 57.19280894 58.3368317 57.19923019 61.39789772 C57.20994775 66.24419868 57.23020238 71.09043076 57.25234985 75.93669128 C57.31414859 89.71533044 57.36826079 103.49396484 57.40136719 117.27270508 C57.41974442 124.88800865 57.44871676 132.50319601 57.4893719 140.1184141 C57.51038508 144.14337762 57.52589112 148.16819508 57.52817917 152.19321632 C57.53033527 155.98133675 57.54630195 159.76915283 57.57256889 163.5571804 C57.57972608 164.94179986 57.58188036 166.32645634 57.57846642 167.71109009 C57.56002978 176.61542234 57.67144678 184.65438885 63.25 191.9375 C68.98200259 196.23650194 75.51682916 196.35731894 82.4375 196.625 C83.67790039 196.68300781 83.67790039 196.68300781 84.94335938 196.7421875 C86.96191073 196.83553092 88.98092331 196.91880961 91 197 C91 199.97 91 202.94 91 206 C88.83050781 206.05607422 88.83050781 206.05607422 86.6171875 206.11328125 C84.70309992 206.17896073 82.78903856 206.24540738 80.875 206.3125 C79.92367187 206.33505859 78.97234375 206.35761719 77.9921875 206.38085938 C71.39857749 206.63269865 66.65849021 207.41535674 61.75 212.1875 C57.02174349 219.78648368 57.71200952 228.47520479 57.72875977 237.12011719 C57.72436623 238.54023536 57.7190618 239.96035096 57.71292114 241.38046265 C57.70146708 244.42621177 57.6959651 247.47189175 57.69503975 250.51766205 C57.69308887 255.34397117 57.6749792 260.17013867 57.65428162 264.99639893 C57.6052285 276.9849864 57.5742603 288.9736122 57.55297852 300.96228027 C57.53641107 310.28075121 57.51347212 319.59909996 57.46995777 328.91748929 C57.44830837 333.70448253 57.44011162 338.49124292 57.44235051 343.27828169 C57.44067091 346.27040356 57.42654418 349.26237635 57.40913773 352.25444412 C57.4009677 354.27977201 57.40742571 356.30514286 57.414505 358.33047485 C57.31448844 371.11683111 55.36919381 383.64492341 45.9609375 393.03515625 C37.93274413 399.71586134 28.68758131 403.15340953 18.26171875 403.09765625 C17.19501953 403.09443359 16.12832031 403.09121094 15.02929688 403.08789062 C13.92650391 403.07951172 12.82371094 403.07113281 11.6875 403.0625 C10.56537109 403.05798828 9.44324219 403.05347656 8.28710938 403.04882812 C5.5246849 403.03707313 2.76237002 403.02064077 0 403 C0 400.03 0 397.06 0 394 C0.6391333 393.9906543 1.2782666 393.98130859 1.93676758 393.97167969 C20.50023213 393.820655 20.50023213 393.820655 37.375 386.875 C47.39349533 375.90236226 47.29889812 361.53949552 47.27124023 347.45410156 C47.27563897 346.03675542 47.28094525 344.61941184 47.28707886 343.20207214 C47.29848603 340.17548296 47.30403132 337.14896291 47.30496025 334.1223526 C47.30691747 329.33042665 47.32505736 324.53864205 47.34571838 319.74676514 C47.39466874 307.85333142 47.42580301 295.95985997 47.44702148 284.06634521 C47.46356691 274.80230898 47.48641289 265.53839609 47.53004223 256.27444243 C47.55174417 251.51644041 47.55988368 246.75867322 47.55764949 242.00062513 C47.55932173 239.0381977 47.57340233 236.07592265 47.59086227 233.11355019 C47.59908505 231.09703262 47.59255025 229.08047157 47.585495 227.06394958 C47.66858537 216.61108532 49.32335775 209.87937947 56.75 202.1875 C57.36875 201.5996875 57.36875 201.5996875 58 201 C57.2575 200.484375 56.515 199.96875 55.75 199.4375 C51.63363682 195.78890536 49.01812876 191.47772691 48 186 C47.90389556 184.03341238 47.86246841 182.0638919 47.85523987 180.0949707 C47.84834137 178.88676163 47.84144287 177.67855255 47.83433533 176.43373108 C47.83162079 175.09774795 47.82898362 173.76176467 47.82641602 172.42578125 C47.82010806 171.01610613 47.81334199 169.60643299 47.80615234 168.19676208 C47.79149322 165.16133031 47.77976366 162.12590617 47.77020454 159.0904541 C47.75472106 154.28129504 47.73076857 149.47220118 47.70530701 144.66308594 C47.63419772 130.98750949 47.57448667 117.31189508 47.52319336 103.63623047 C47.49478776 96.08282937 47.45934753 88.52949258 47.41653961 80.9761591 C47.38992381 76.20595201 47.3719223 71.43581762 47.36050236 66.66555119 C47.35130205 63.68109708 47.33390545 60.69673029 47.31432343 57.71232796 C47.30342287 55.69174245 47.30210444 53.67111214 47.30119324 51.65049744 C47.19920115 38.7338075 46.46456465 26.08023748 37.375 16.125 C25.7072614 8.77864607 13.40823702 9.19606145 0 9 C0 6.03 0 3.06 0 0 Z " fill="#00D2F2" transform="translate(387,0)"/>
<path d="M0 0 C1.06669922 0.00322266 2.13339844 0.00644531 3.23242188 0.00976562 C4.88661133 0.02233398 4.88661133 0.02233398 6.57421875 0.03515625 C7.69634766 0.03966797 8.81847656 0.04417969 9.97460938 0.04882812 C12.73703385 0.06058312 15.49934873 0.07701548 18.26171875 0.09765625 C18.26171875 3.06765625 18.26171875 6.03765625 18.26171875 9.09765625 C17.24972412 9.1116748 17.24972412 9.1116748 16.21728516 9.12597656 C13.10640525 9.18026394 9.99693646 9.2637934 6.88671875 9.34765625 C5.29537109 9.36892578 5.29537109 9.36892578 3.671875 9.390625 C-5.74716714 9.67955267 -14.24294321 11.73072045 -21.2734375 18.34765625 C-29.50485425 28.18145546 -29.03297964 42.55628131 -29.00952148 54.62182617 C-29.01391879 56.04887689 -29.01922456 57.47592505 -29.02536011 58.90296936 C-29.03677931 61.95358531 -29.04231349 65.00413256 -29.0432415 68.05476952 C-29.04519664 72.88442058 -29.06332591 77.71393098 -29.08399963 82.54353333 C-29.13298038 94.53213632 -29.16407942 106.52077697 -29.18530273 118.50946045 C-29.20184708 127.84421193 -29.22469513 137.178841 -29.26832348 146.51351053 C-29.29003013 151.30914447 -29.29816444 156.10454538 -29.29593074 160.90022504 C-29.29760293 163.88668901 -29.31168347 166.8730018 -29.32914352 169.85941124 C-29.33736727 171.8926373 -29.33083106 173.92590651 -29.32377625 175.95913696 C-29.38785956 184.08637955 -29.59679945 190.64968842 -35.30078125 196.91015625 C-36.10515625 197.63203125 -36.90953125 198.35390625 -37.73828125 199.09765625 C-38.39828125 200.08765625 -39.05828125 201.07765625 -39.73828125 202.09765625 C-38.99578125 202.61328125 -38.25328125 203.12890625 -37.48828125 203.66015625 C-33.37265959 207.30809363 -30.75455332 211.6202604 -29.73828125 217.09765625 C-29.64414764 219.07246107 -29.60504128 221.05014988 -29.60025024 223.02719116 C-29.59479691 224.24092407 -29.58934357 225.45465698 -29.58372498 226.70516968 C-29.58260523 228.04742426 -29.5815547 229.38967891 -29.58056641 230.73193359 C-29.57589594 232.1482153 -29.57075199 233.56449552 -29.56517029 234.98077393 C-29.5538984 238.03093703 -29.54545948 241.08109042 -29.53905106 244.13126755 C-29.52834456 248.96617994 -29.50808921 253.80102299 -29.4859314 258.63589478 C-29.42410736 272.38499748 -29.37012631 286.13409701 -29.33691406 299.88330078 C-29.31849055 307.47702979 -29.2894535 315.07064327 -29.24890935 322.66428721 C-29.22795818 326.6765845 -29.21239922 330.68873692 -29.21010208 334.70109177 C-29.20793328 338.48509598 -29.19184044 342.26879928 -29.16571236 346.05271149 C-29.1552465 348.08006646 -29.1592373 350.10748054 -29.16389465 352.13485718 C-29.0479118 365.1198827 -27.81541063 377.60422514 -18.61328125 387.34765625 C-7.10793412 394.35091102 5.15963034 393.90607145 18.26171875 394.09765625 C18.26171875 397.06765625 18.26171875 400.03765625 18.26171875 403.09765625 C-14.38064672 403.90666251 -14.38064672 403.90666251 -26.73828125 394.09765625 C-35.34270066 385.47672164 -38.8473244 374.90867025 -38.87631226 362.89396667 C-38.88176559 361.67025864 -38.88721893 360.4465506 -38.89283752 359.1857605 C-38.89395708 357.84283453 -38.89500764 356.4999085 -38.89599609 355.15698242 C-38.90066913 353.73229314 -38.9058135 352.30760534 -38.91139221 350.88291931 C-38.92264018 347.82186716 -38.93109019 344.76082455 -38.93751144 341.69975853 C-38.948229 336.85345757 -38.96848363 332.00722549 -38.9906311 327.16096497 C-39.05242984 313.38232581 -39.10654204 299.60369141 -39.13964844 285.82495117 C-39.15802567 278.2096476 -39.18699801 270.59446024 -39.22765315 262.97924215 C-39.24866633 258.95427863 -39.26417237 254.92946117 -39.26646042 250.90443993 C-39.26861652 247.1163195 -39.2845832 243.32850342 -39.31085014 239.54047585 C-39.31800733 238.15585639 -39.32016161 236.77119991 -39.31674767 235.38656616 C-39.29822879 226.44251045 -39.71869107 218.82834754 -44.61328125 211.16015625 C-48.20130445 207.67766314 -51.92245275 206.86388307 -56.8203125 206.68359375 C-58.21733398 206.62558594 -58.21733398 206.62558594 -59.64257812 206.56640625 C-60.60228516 206.53546875 -61.56199219 206.50453125 -62.55078125 206.47265625 C-63.52982422 206.43398437 -64.50886719 206.3953125 -65.51757812 206.35546875 C-67.92418105 206.26155254 -70.33120476 206.17853061 -72.73828125 206.09765625 C-72.73828125 203.12765625 -72.73828125 200.15765625 -72.73828125 197.09765625 C-71.61550781 197.06027344 -70.49273437 197.02289063 -69.3359375 196.984375 C-61.29596138 196.65408797 -54.2605653 196.21032551 -46.73828125 193.09765625 C-45.74828125 192.76765625 -44.75828125 192.43765625 -43.73828125 192.09765625 C-42.57314512 189.8983269 -42.57314512 189.8983269 -41.73828125 187.09765625 C-41.22217789 185.71188889 -41.22217789 185.71188889 -40.69564819 184.29812622 C-39.02712529 178.36089879 -39.46326816 172.12907927 -39.48291016 166.01513672 C-39.48015698 164.58693747 -39.4764751 163.15873975 -39.47193909 161.73054504 C-39.46385177 158.66404016 -39.46165247 155.59760809 -39.46388626 152.5310936 C-39.46673159 147.67098854 -39.45232042 142.81102743 -39.43490601 137.95095825 C-39.38800023 124.13366869 -39.36395604 110.31638913 -39.35742188 96.49902344 C-39.35365734 88.86059076 -39.33551589 81.22232143 -39.30232751 73.58395875 C-39.28223812 68.76455784 -39.27968177 63.94558185 -39.29060769 59.12615657 C-39.29323684 56.11100777 -39.27910417 53.09610027 -39.26052666 50.08101463 C-39.25276945 48.04274069 -39.26455665 46.00442072 -39.27720642 43.96617126 C-39.17106127 31.98049792 -36.82500336 20.34497274 -28.73828125 11.09765625 C-20.9456654 3.60734016 -10.71338573 -0.05729083 0 0 Z " fill="#00D2F2" transform="translate(72.73828125,-0.09765625)"/>
<path d="M0 0 C3.69927206 1.47970882 6.68664725 2.88501143 10.0546875 4.8984375 C10.99957031 5.46046875 11.94445312 6.0225 12.91796875 6.6015625 C14.38169922 7.47941406 14.38169922 7.47941406 15.875 8.375 C17.809635 9.52908319 19.74452518 10.68273873 21.6796875 11.8359375 C22.95948486 12.60236572 22.95948486 12.60236572 24.26513672 13.38427734 C26.39167416 14.64060878 28.5256804 15.87725865 30.67092896 17.10098267 C31.7695224 17.72765839 32.86811584 18.35433411 34 19 C34.02312241 30.45650016 34.04091457 41.91299481 34.05181217 53.36951351 C34.05704122 58.68865213 34.06413927 64.00777484 34.07543945 69.3269043 C34.08626755 74.45563985 34.09227667 79.58436006 34.09487724 84.71310616 C34.09673163 86.67441614 34.10035251 88.63572524 34.10573006 90.59702873 C34.11293946 93.33415447 34.11399099 96.07121597 34.11352539 98.80834961 C34.11712067 99.62761932 34.12071594 100.44688904 34.12442017 101.29098511 C34.11405216 106.88594784 34.11405216 106.88594784 33 108 C22.11 108 11.22 108 0 108 C0 72.36 0 36.72 0 0 Z " fill="#FFFFFF" transform="translate(96,170)"/>
<path d="M0 0 C0.64773376 0.16331314 1.29546753 0.32662628 1.96282959 0.49488831 C5.85145622 1.14160565 9.66652103 1.11486517 13.59472656 1.08178711 C14.44906784 1.07872055 15.30340912 1.07565399 16.18363953 1.07249451 C18.03443596 1.06535503 19.88522481 1.05597319 21.73600006 1.04459953 C24.67090865 1.02716384 27.60576241 1.01689492 30.54071045 1.00868225 C38.88412666 0.98427351 47.22746918 0.94877135 55.57080078 0.90405273 C60.67939517 0.87717368 65.78794679 0.86019285 70.89659882 0.84918404 C72.83735481 0.84300049 74.77810276 0.83302836 76.71881866 0.81910515 C79.44183177 0.79974861 82.16462235 0.7929732 84.88769531 0.78881836 C86.07569984 0.77567596 86.07569984 0.77567596 87.28770447 0.76226807 C94.22548347 0.77426802 101.11565857 1.7543799 107.38671875 4.875 C108.09763672 5.22046875 108.80855469 5.5659375 109.54101562 5.921875 C110.60352539 6.45554687 110.60352539 6.45554687 111.6875 7 C116.39753382 9.32760848 120.95167104 11.47357613 126 13 C125.67 14.32 125.34 15.64 125 17 C123.68 17 122.36 17 121 17 C120.505 15.515 120.505 15.515 120 14 C118.24948063 12.86311333 118.24948063 12.86311333 116.0703125 11.9921875 C115.27496094 11.64542969 114.47960937 11.29867187 113.66015625 10.94140625 C112.82355469 10.58949219 111.98695313 10.23757812 111.125 9.875 C110.29613281 9.51535156 109.46726562 9.15570313 108.61328125 8.78515625 C101.98751854 5.83695426 101.98751854 5.83695426 94.8808136 4.87974548 C94.04368835 4.87837082 93.20656311 4.87699615 92.34407043 4.87557983 C91.42913315 4.87917511 90.51419586 4.88277039 89.5715332 4.88647461 C88.60549164 4.88632858 87.63945007 4.88618256 86.64413452 4.8860321 C83.44632737 4.88672959 80.24857824 4.89451438 77.05078125 4.90234375 C74.8354648 4.90420851 72.62014794 4.90563214 70.40483093 4.90663147 C64.57033146 4.91045207 58.73585683 4.92027849 52.90136719 4.93133545 C46.94922217 4.94155937 40.99707314 4.9461312 35.04492188 4.95117188 C23.36327033 4.96190114 11.68163723 4.97897211 0 5 C-0.33 4.01 -0.66 3.02 -1 2 C-0.67 1.34 -0.34 0.68 0 0 Z " fill="#FFFFFF" transform="translate(92,121)"/>
<path d="M0 0 C1.98 0.66 3.96 1.32 6 2 C6 2.66 6 3.32 6 4 C5.01 4.33 4.02 4.66 3 5 C3 40.31 3 75.62 3 112 C3.99 112 4.98 112 6 112 C6 112.66 6 113.32 6 114 C3.525 114.99 3.525 114.99 1 116 C0.01 115.01 -0.98 114.02 -2 113 C-1.505 112.01 -1.505 112.01 -1 111 C-0.90820889 109.58982817 -0.87806388 108.17539266 -0.87974548 106.76223755 C-0.87837082 105.87336853 -0.87699615 104.98449951 -0.87557983 104.06869507 C-0.87917511 103.09099152 -0.88277039 102.11328796 -0.88647461 101.10595703 C-0.88632858 100.07821167 -0.88618256 99.05046631 -0.8860321 97.99157715 C-0.88673101 94.58030109 -0.89452428 91.16907907 -0.90234375 87.7578125 C-0.90420854 85.39370758 -0.90563216 83.02960227 -0.90663147 80.66549683 C-0.91045623 74.42973776 -0.92028339 68.19400185 -0.93133545 61.95825195 C-0.94153379 55.61670239 -0.94613012 49.27514914 -0.95117188 42.93359375 C-0.96143145 31.00306858 -0.9772226 19.07255865 -0.99720669 7.14204597 C-0.99987651 5.09469885 -1 3.04734887 -1 1 C-0.67 0.67 -0.34 0.34 0 0 Z " fill="#FFFFFF" transform="translate(389,132)"/>
<path d="M0 0 C0.99 0.33 1.98 0.66 3 1 C3.763125 0.96519531 4.52625 0.93039063 5.3125 0.89453125 C10.17191661 0.74620603 13.02946505 1.20097054 16.8515625 4.34765625 C19.77222306 7.39683816 22.39384173 10.68216769 25 14 C26.49889298 15.83423852 27.99883665 17.66761911 29.5 19.5 C30.5828125 20.84578125 30.5828125 20.84578125 31.6875 22.21875 C34.63479977 25.7634754 37.7539439 29.12461774 40.89428711 32.49755859 C44.86616612 36.7898522 48.56461847 41.2560339 52.22265625 45.8203125 C54.62162623 49.07309033 54.62162623 49.07309033 58.2421875 50.23046875 C59.11101562 50.21628906 59.97984375 50.20210938 60.875 50.1875 C62.17050781 50.17783203 62.17050781 50.17783203 63.4921875 50.16796875 C65.79192226 50.01393667 67.79283489 49.64161776 70 49 C70.495 50.98 70.495 50.98 71 53 C65.56281649 54.59765582 60.43809655 54.62672357 55 53 C51.00729989 49.8359735 48.07639735 46.03745371 45 42 C43.50490993 40.1626604 42.00501797 38.32921623 40.5 36.5 C39.7678125 35.5925 39.035625 34.685 38.28125 33.75 C35.14686579 29.97156424 31.81743654 26.38746615 28.4921875 22.77734375 C25.19058569 19.09797246 22.09123204 15.27296412 19.0078125 11.41015625 C15.47139828 6.79519129 15.47139828 6.79519129 10.421875 4.390625 C9.09929687 4.32101563 9.09929687 4.32101563 7.75 4.25 C6.85796875 4.19328125 5.9659375 4.1365625 5.046875 4.078125 C4.03367188 4.03945312 4.03367188 4.03945312 3 4 C3 4.66 3 5.32 3 6 C1.68 5.67 0.36 5.34 -1 5 C-0.67 3.35 -0.34 1.7 0 0 Z " fill="#FFFFFF" transform="translate(141,232)"/>
<path d="M0 0 C0.99 0.33 1.98 0.66 3 1 C4.30904297 0.84337891 4.30904297 0.84337891 5.64453125 0.68359375 C9.63437242 0.37365541 12.20614428 0.64245418 16 2 C21.00009515 6.29961208 24.59596049 12.06105958 28.27685547 17.47607422 C30.43171686 20.6323447 32.68677686 23.70794929 34.94677734 26.78930664 C37.10924457 29.74807678 39.23582673 32.73189247 41.36474609 35.71484375 C43.62423582 38.87232715 45.90248848 42.01607365 48.1809082 45.15991211 C49.82274327 47.42781658 51.45892738 49.69969361 53.09375 51.97265625 C54.84754452 54.41031675 56.61463155 56.83612235 58.40625 59.24609375 C59.0559375 60.13425781 59.705625 61.02242187 60.375 61.9375 C60.91898437 62.66839844 61.46296875 63.39929688 62.0234375 64.15234375 C62.50683594 65.06693359 62.50683594 65.06693359 63 66 C62.505 67.485 62.505 67.485 62 69 C60.67975402 67.17196711 59.35951523 65.34392903 58.03930664 63.51586914 C56.87064248 61.89778232 55.70185644 60.27978353 54.53295898 58.66186523 C51.59731798 54.59818606 48.66314716 50.53347686 45.734375 46.46484375 C40.06716499 38.59589609 34.37018172 30.7497475 28.625 22.9375 C28.06627197 22.17638916 27.50754395 21.41527832 26.93188477 20.63110352 C25.84711135 19.1594292 24.75542515 17.69282233 23.65649414 16.23168945 C22.49172451 14.66246924 21.35799929 13.06996218 20.24780273 11.46166992 C16.94463735 6.58025329 16.94463735 6.58025329 11.83203125 4.12109375 C10.33736328 4.27771484 10.33736328 4.27771484 8.8125 4.4375 C7.30623047 4.55931641 7.30623047 4.55931641 5.76953125 4.68359375 C4.85558594 4.78800781 3.94164062 4.89242187 3 5 C1.68 5 0.36 5 -1 5 C-1 1 -1 1 0 0 Z " fill="#FFFFFF" transform="translate(240,120)"/>
<path d="M0 0 C2.0625 0.4375 2.0625 0.4375 4 1 C3.96970703 1.63389648 3.93941406 2.26779297 3.90820312 2.92089844 C3.16133552 18.73725628 2.69090103 34.19730531 4 50 C6.08326131 50.02709444 8.16662441 50.04643873 10.25 50.0625 C11.99023438 50.07990234 11.99023438 50.07990234 13.765625 50.09765625 C16.40977128 50.01782092 18.49826091 49.78643778 21 49 C21.33 50.65 21.66 52.3 22 54 C15.07 53.67 8.14 53.34 1 53 C0.93941406 49.58140625 0.87882812 46.1628125 0.81640625 42.640625 C0.75460453 39.33103246 0.69122191 36.02147371 0.62768555 32.71191406 C0.58436394 30.41116338 0.54268687 28.11038112 0.50268555 25.80957031 C0.44491605 22.50315839 0.38124051 19.196905 0.31640625 15.890625 C0.29969376 14.86132874 0.28298126 13.83203247 0.26576233 12.77154541 C0.24581711 11.81085144 0.22587189 10.85015747 0.20532227 9.86035156 C0.18977798 9.01651917 0.1742337 8.17268677 0.15821838 7.30328369 C0.06924278 4.98795205 0.06924278 4.98795205 -0.57533264 2.75872803 C-0.71547287 2.17834778 -0.8556131 1.59796753 -1 1 C-0.67 0.67 -0.34 0.34 0 0 Z " fill="#FFFFFF" transform="translate(345,232)"/>
<path d="M0 0 C1.32 0.66 2.64 1.32 4 2 C3.75 3.875 3.75 3.875 3 6 C2.38108887 6.30236572 1.76217773 6.60473145 1.12451172 6.91625977 C-1.29250752 8.14921178 -2.20085411 9.25628503 -3.7421875 11.46484375 C-4.24411621 12.17318359 -4.74604492 12.88152344 -5.26318359 13.61132812 C-5.79508301 14.37896484 -6.32698242 15.14660156 -6.875 15.9375 C-8.0302041 17.57235413 -9.18649149 19.20644323 -10.34375 20.83984375 C-10.941875 21.68788574 -11.54 22.53592773 -12.15625 23.40966797 C-15.17299676 27.64797347 -18.27624546 31.82149647 -21.375 36 C-29.84807604 46.37088549 -29.84807604 46.37088549 -36 58 C-36.66 58 -37.32 58 -38 58 C-37.60710504 52.5844208 -34.45414683 49.06249947 -31.3125 44.875 C-30.73669189 44.09310303 -30.16088379 43.31120605 -29.56762695 42.50561523 C-28.34471271 40.84685323 -27.11796431 39.19091215 -25.88769531 37.53759766 C-24.01831585 35.0246217 -22.15977991 32.50400524 -20.3046875 29.98046875 C-11.1938953 17.59164846 -11.1938953 17.59164846 -7.41015625 12.53515625 C-6.69730469 11.57480469 -5.98445313 10.61445313 -5.25 9.625 C-4.65703125 8.83351562 -4.0640625 8.04203125 -3.453125 7.2265625 C-1.93191465 4.89567568 -0.94181907 2.61308625 0 0 Z " fill="#FFFFFF" transform="translate(348,131)"/>
<path d="M0 0 C1.32 0 2.64 0 4 0 C3.99777939 0.59468582 3.99555878 1.18937164 3.99327087 1.80207825 C3.97117556 7.98238526 3.95607558 14.16268108 3.94506836 20.34301758 C3.94003449 22.6506394 3.93320695 24.95825803 3.92456055 27.26586914 C3.91245365 30.57959786 3.90676227 33.89328448 3.90234375 37.20703125 C3.89718246 38.2414888 3.89202118 39.27594635 3.88670349 40.3417511 C3.88659019 41.78290535 3.88659019 41.78290535 3.88647461 43.25317383 C3.884254 44.09922684 3.88203339 44.94527985 3.87974548 45.81697083 C3.91375879 48.18055791 3.91375879 48.18055791 5 51 C3.68 51.66 2.36 52.32 1 53 C0.34 51.68 -0.32 50.36 -1 49 C-0.505 48.505 -0.505 48.505 0 48 C0.10127025 44.87151348 0.1396754 41.76557051 0.1328125 38.63671875 C0.13376923 37.69319046 0.13472595 36.74966217 0.13571167 35.77754211 C0.13639377 33.77592909 0.13453744 31.77431388 0.13037109 29.77270508 C0.125041 26.71104939 0.13030588 23.64954161 0.13671875 20.58789062 C0.13605762 18.64583301 0.13477575 16.70377549 0.1328125 14.76171875 C0.13483673 13.84492844 0.13686096 12.92813812 0.13894653 11.98356628 C0.13579437 11.12620377 0.13264221 10.26884125 0.12939453 9.38549805 C0.12859894 8.63350632 0.12780334 7.88151459 0.12698364 7.10673523 C0.06497258 4.96062726 0.06497258 4.96062726 -0.57058716 2.78840637 C-0.7122934 2.19823227 -0.85399963 1.60805817 -1 1 C-0.67 0.67 -0.34 0.34 0 0 Z " fill="#FFFFFF" transform="translate(89,207)"/>
<path d="M0 0 C1.32 0.66 2.64 1.32 4 2 C3.67 2.99 3.34 3.98 3 5 C1.68 5 0.36 5 -1 5 C-0.67 3.35 -0.34 1.7 0 0 Z " fill="#FFFFFF" transform="translate(305,189)"/>
<path d="" fill="#FFFFFF" transform="translate(0,0)"/>
<path d="" fill="#FFFFFF" transform="translate(0,0)"/>
<path d="" fill="#FFFFFF" transform="translate(0,0)"/>
</svg>
